<svg width="22" height="24" viewBox="0 0 22 24" fill="none" xmlns="http://www.w3.org/2000/svg">
<path d="M11.8388 1.11965C11.2909 0.960115 10.709 0.960115 10.1611 1.11965C9.78105 1.23036 9.46585 1.42504 9.17175 1.64772C8.89472 1.85744 8.5828 2.13473 8.2236 2.45404L2.95681 7.13564L2.87282 7.21025C2.35116 7.67345 1.95707 8.02339 1.66895 8.45681C1.42539 8.82319 1.24395 9.22724 1.13192 9.65273C0.999398 10.156 0.999668 10.683 1.00004 11.3806L1.00007 11.493V16.536L1.00007 16.5361C1.00006 17.3545 1.00005 18.0301 1.04572 18.5801C1.09317 19.1514 1.19504 19.6762 1.45041 20.1678C1.82991 20.8984 2.42559 21.494 3.15615 21.8735C3.64779 22.1289 4.17262 22.2308 4.74397 22.2782C5.29397 22.3239 5.96952 22.3239 6.78805 22.3239H7.19502H7.21854H7.22194C7.34236 22.3239 7.48549 22.3239 7.61166 22.3134C7.75935 22.3012 7.97076 22.2697 8.19148 22.155C8.46544 22.0127 8.68882 21.7893 8.83113 21.5154C8.94577 21.2946 8.97727 21.0832 8.98954 20.9355C9.0001 20.8088 9.00005 20.6649 9.00001 20.5442V20.5424L9 17.324C9 16.2194 9.89545 15.324 11 15.324C12.1045 15.324 13 16.2194 13 17.324L12.9999 20.5424V20.5458C12.9999 20.6662 12.9999 20.8094 13.0104 20.9355C13.0227 21.0832 13.0542 21.2946 13.1688 21.5154C13.3111 21.7893 13.5345 22.0127 13.8085 22.155C14.0292 22.2697 14.2406 22.3012 14.3883 22.3134C14.5145 22.3239 14.6576 22.3239 14.778 22.3239H14.7814H14.805H15.2119C16.0305 22.3239 16.706 22.3239 17.256 22.2782C17.8274 22.2308 18.3522 22.1289 18.8439 21.8735C19.5744 21.494 20.1701 20.8984 20.5496 20.1678C20.805 19.6762 20.9069 19.1514 20.9543 18.5801C21 18.0301 21 17.3545 21 16.536V11.493V11.3806C21.0004 10.683 21.0006 10.156 20.8681 9.65273C20.7561 9.22724 20.5746 8.82319 20.3311 8.45681C20.0429 8.02339 19.6489 7.67345 19.1272 7.21024L19.0432 7.13564L13.7764 2.45403C13.4172 2.13473 13.1052 1.85744 12.8282 1.64772C12.5341 1.42504 12.2189 1.23036 11.8388 1.11965Z" stroke="#288BEE" stroke-width="1.8"/>
</svg>
