<svg width="12" height="20" viewBox="0 0 12 20" fill="none" xmlns="http://www.w3.org/2000/svg">
<path d="M11.3866 8.77295V9.93482C11.3866 11.3634 10.8191 12.7335 9.80887 13.7437C8.7987 14.7539 7.4286 15.3214 6 15.3214C4.57139 15.3214 3.2013 14.7539 2.19113 13.7437C1.18095 12.7335 0.613438 11.3634 0.613438 9.93482V8.77295" stroke="#288BEE" stroke-width="1.2" stroke-linecap="round"/>
<path d="M6.02062 1.21729H5.79375C4.106 1.21729 2.73781 2.58548 2.73781 4.27322V9.92447C2.73781 11.6122 4.106 12.9804 5.79375 12.9804H6.02062C7.70837 12.9804 9.07656 11.6122 9.07656 9.92447V4.27322C9.07656 2.58548 7.70837 1.21729 6.02062 1.21729Z" stroke="#288BEE" stroke-width="1.2" stroke-linecap="round"/>
<path d="M5.90719 18.7107V15.4004" stroke="#288BEE" stroke-width="1.2" stroke-linecap="round"/>
<path d="M7.76687 18.7827H4.08531" stroke="#288BEE" stroke-width="1.2" stroke-linecap="round"/>
</svg>
