<?xml version="1.0" encoding="UTF-8"?>
<svg id="Layer_2" data-name="Layer 2" xmlns="http://www.w3.org/2000/svg" viewBox="0 0 19.74 24">
  <defs>
    <style>
      .cls-1 {
        fill: #288BEE;
      }
    </style>
  </defs>
  <g id="Layer_1-2">
    <path class="cls-1" d="m18.47,15.51c-.18-.18-.28-.42-.28-.66v-4.45c0-1.86-.63-3.68-1.78-5.14-.98-1.25-2.09-2.21-4.17-2.82,0-.02,0-.04,0-.06,0-1.31-1.07-2.38-2.38-2.38s-2.38,1.07-2.38,2.38c0,.02,0,.05,0,.07-1.84.55-3.15,1.7-4.17,2.81-1.15,1.46-1.78,3.29-1.78,5.14v4.45c0,.25-.1.49-.28.67C.45,16.31,0,17.43,0,18.57v.32c0,.57.22,1.11.63,1.52.41.41.94.63,1.52.63h4.69c.02.78.33,1.52.88,2.08.57.57,1.33.89,2.15.89s1.58-.32,2.14-.89c.56-.56.86-1.29.88-2.08h4.7c.57,0,1.11-.22,1.52-.63.41-.41.63-.94.63-1.52v-.31c0-1.14-.46-2.26-1.27-3.07ZM9.87,1.2c.58,0,1.04.43,1.14.98-.83-.1-1.58-.09-2.27,0,.1-.55.56-.98,1.14-.98Zm1.3,21.06c-.69.69-1.9.69-2.59,0-.33-.33-.51-.76-.53-1.23h3.65c-.02.46-.2.9-.53,1.23Zm7.37-3.37c0,.25-.1.49-.28.67-.17.18-.42.28-.67.28H2.15c-.25,0-.49-.1-.67-.28-.18-.18-.28-.41-.28-.67v-.32c0-.82.33-1.63.91-2.21.41-.4.63-.94.63-1.52v-4.45c0-1.59.54-3.15,1.49-4.36,1.28-1.38,2.92-2.72,5.59-2.72.53,0,1.1.05,1.71.17,2.03.52,2.98,1.31,3.92,2.52.98,1.25,1.52,2.81,1.52,4.4v4.45c0,.56.23,1.11.63,1.51h0c.58.58.92,1.39.91,2.22v.32Z"/>
  </g>
</svg>