<svg width="25" height="33" viewBox="0 0 25 33" fill="none" xmlns="http://www.w3.org/2000/svg">
<path d="M10.1821 32C5.11261 32 1 27.8772 1 22.8077C1 19.0209 5.85573 12.404 8.47193 8.8513C8.98091 8.15908 9.67313 7.10039 9.93781 6.83571C9.97853 6.795 10.0396 6.795 10.0803 6.83571C10.9456 7.68063 19.3744 18.0945 19.3744 22.8077C19.3744 27.8772 15.2516 32 10.1923 32H10.1821Z" stroke="#666666" stroke-miterlimit="10"/>
<path d="M20.3485 12.1597C17.9054 12.1597 15.9102 10.1645 15.9102 7.72133C15.9102 5.88898 18.2617 2.69254 19.5138 0.982345C19.7581 0.646413 20.094 0.137426 20.2264 0.0152696C20.2467 -0.00508987 20.2773 -0.00508987 20.2976 0.0152696C20.715 0.422459 24.7869 5.45125 24.7869 7.73151C24.7869 10.1746 22.7917 12.1699 20.3485 12.1699V12.1597Z" fill="#44C395"/>
</svg>
