<svg width="28" height="34" viewBox="0 0 28 34" fill="none" xmlns="http://www.w3.org/2000/svg">
<path d="M24.41 27.68V29.88C24.41 31.6 23.01 33 21.29 33H18.95C10.75 33 4.12 26.37 4.12 18.17V15.83H5.68C6.11 15.83 6.46 16.18 6.46 16.61V18.95C6.46 19.38 6.81 19.73 7.24 19.73C7.67 19.73 8.02 19.38 8.02 18.95V16.61C8.02 15.32 6.97 14.27 5.68 14.27H1.78C1.35 14.27 1 13.92 1 13.49V12.71C1 12.28 1.35 11.93 1.78 11.93H3.34C3.77 11.93 4.12 11.58 4.12 11.15V1.78C4.12 1.35 4.47 1 4.9 1H5.68C6.11 1 6.46 1.35 6.46 1.78V11.15C6.46 11.58 6.81 11.93 7.24 11.93C8.96 11.93 10.36 13.33 10.36 15.05V18.95C10.36 19.38 10.71 19.73 11.14 19.73C11.57 19.73 11.92 19.38 11.92 18.95V15.05C11.92 12.75 10.24 10.8 8.02 10.45V8.03H11.14C12.39 8.03 13.48 7.25 13.83 6.08C14.65 3.5 17.03 1.79 19.72 1.79C19.92 1.79 20.11 1.87 20.27 2.02C20.43 2.18 20.5 2.37 20.5 2.57V3.35C20.5 3.55 20.42 3.74 20.27 3.9C20.11 4.06 19.92 4.13 19.72 4.13C18 4.09 16.48 5.3 16.01 7.02L15.78 7.84C15.66 8.23 15.86 8.62 16.25 8.78C20 10.19 22.8 13.28 23.9 17.01" stroke="#666666" stroke-miterlimit="10"/>
<path d="M20.6002 15.73C16.7702 15.73 13.6602 18.84 13.6602 22.67C13.6602 26.5 16.7702 29.61 20.6002 29.61C24.4302 29.61 27.5402 26.5 27.5402 22.67C27.5402 18.84 24.4302 15.73 20.6002 15.73ZM21.0702 28.65V27.93C21.0702 27.67 20.8602 27.46 20.6002 27.46C20.3402 27.46 20.1302 27.67 20.1302 27.93V28.65C17.1902 28.42 14.8502 26.08 14.6202 23.14H15.3402C15.6002 23.14 15.8102 22.93 15.8102 22.67C15.8102 22.41 15.6002 22.2 15.3402 22.2H14.6202C14.8502 19.26 17.1902 16.92 20.1302 16.69V17.41C20.1302 17.67 20.3402 17.88 20.6002 17.88C20.8602 17.88 21.0702 17.67 21.0702 17.41V16.69C24.0102 16.92 26.3502 19.26 26.5802 22.2H25.8602C25.6002 22.2 25.3902 22.41 25.3902 22.67C25.3902 22.93 25.6002 23.14 25.8602 23.14H26.5802C26.3502 26.07 24.0102 28.42 21.0702 28.65Z" fill="#44C395"/>
<path d="M22.7987 19.0999L21.5588 20.7099C21.3088 20.5999 21.0288 20.5299 20.7388 20.5299C19.6288 20.5299 18.7188 21.4399 18.7188 22.5499C18.7188 23.6599 19.6288 24.5699 20.7388 24.5699C21.8488 24.5699 22.7588 23.6599 22.7588 22.5499C22.7588 22.0699 22.5787 21.6299 22.2987 21.2799L23.5388 19.6599C23.6988 19.4499 23.6588 19.1599 23.4488 18.9999C23.2388 18.8399 22.9488 18.8799 22.7888 19.0899L22.7987 19.0999ZM20.7388 23.6399C20.1388 23.6399 19.6588 23.1499 19.6588 22.5599C19.6588 21.9699 20.1488 21.4799 20.7388 21.4799C21.3288 21.4799 21.8188 21.9699 21.8188 22.5599C21.8188 23.1499 21.3288 23.6399 20.7388 23.6399Z" fill="#44C395"/>
</svg>
