<svg width="12" height="31" viewBox="0 0 12 31" fill="none" xmlns="http://www.w3.org/2000/svg">
<path d="M8.4294 9.14082C8.60947 9.01762 11.0356 13.6804 11.0356 15.5758C11.0356 16.2297 10.9598 16.751 10.865 17.2153L10.8176 17.4144C10.4196 18.6464 8.4294 19.9732 7.58594 19.2908C9.26339 15.7464 8.65685 11.5291 8.43888 9.1503L8.4294 9.14082Z" fill="#44C395"/>
<path d="M4.03064 19.5941C2.90286 19.5941 1.86985 19.0823 1.1875 18.2578L2.21103 28.1519C2.21103 29.1755 3.03554 30 4.02116 30H4.42868C5.45221 29.8957 5.79338 29.3176 6.27672 28.0477L9.93489 18.5706C8.63652 19.4614 6.68423 19.5941 4.73194 19.5941H4.01168H4.03064Z" stroke="#666666" stroke-miterlimit="10"/>
<path d="M4.5891 6.95163C6.22864 6.95163 7.56491 5.61536 7.56491 3.97582C7.56491 2.33627 6.23812 1 4.5891 1C2.94008 1 1.61328 2.33627 1.61328 3.97582C1.61328 5.61536 2.94956 6.98954 4.5891 6.95163Z" stroke="#666666" stroke-miterlimit="10"/>
<path d="M4.80033 7.60542H4.08007C2.36471 7.60542 1 9.00804 1 10.6855V16.4665L1.06634 17.1205C1.34118 18.5231 2.61111 19.5845 4.08007 19.5845H4.80033C7.53922 19.5845 9.87059 19.376 10.7235 17.3574L10.7899 17.1489C10.9225 16.6656 11.0268 16.1254 11.0268 15.4335C11.0268 12.6283 7.88039 7.59595 4.80033 7.59595V7.60542Z" stroke="#666666" stroke-miterlimit="10"/>
</svg>
