<svg width="28" height="27" viewBox="0 0 28 27" fill="none" xmlns="http://www.w3.org/2000/svg">
<path d="M27.333 8.42348C27.1896 8.15352 26.8521 8.04385 26.5737 8.18727C25.5614 8.71875 24.5744 9.29241 23.6126 9.90826C23.4861 9.89139 23.3511 9.87451 23.2077 9.8492C22.6509 9.76484 22.0182 9.66361 21.4276 9.99262C21.0986 10.1698 20.39 10.2373 19.7067 10.2963C19.3945 10.3216 19.0739 10.3554 18.7702 10.3891C18.7196 10.3891 18.6774 10.3976 18.6268 10.406C18.0616 10.4735 17.2095 10.5832 16.3997 11.0471C15.4295 11.6039 14.7462 12.5488 14.3834 13.8395C13.8435 15.7546 13.5651 16.0161 13.2698 16.286C13.1348 16.4126 12.983 16.556 12.8058 16.8006C11.996 17.9142 12.19 19.4749 12.2659 20.1498V20.2089C9.81941 23.364 8.62147 25.8274 8.46118 26.1733C8.46118 26.1817 8.45274 26.1902 8.45274 26.1986V26.2155C8.31777 26.4939 8.44431 26.8229 8.7227 26.9494C8.79863 26.9832 8.87455 27 8.95048 27C9.16139 27 9.36386 26.8819 9.46509 26.671C9.47353 26.6457 10.739 23.9039 13.5398 20.4113C15.1764 18.3613 17.0239 16.4463 19.0149 14.7169C21.4867 12.5741 24.2116 10.7097 27.1052 9.18274C27.3752 9.03933 27.4848 8.70188 27.3414 8.42348H27.333Z" fill="#666666"/>
<path d="M18.2703 13.8734C16.4819 15.4257 14.8115 17.1214 13.293 18.9267C13.3014 18.4206 13.3942 17.8722 13.6979 17.4673C13.8076 17.3154 13.9088 17.2142 14.0269 17.1129C14.4319 16.7249 14.8199 16.3621 15.4526 14.1518C16.1022 11.8572 17.7051 11.6632 18.7596 11.5282C18.8103 11.5282 18.8609 11.5197 18.9031 11.5113C19.1899 11.4776 19.502 11.4438 19.7973 11.4185C20.6325 11.3426 21.4255 11.2751 21.957 10.9798C21.9907 10.9629 22.0245 10.9461 22.0666 10.9292C20.7506 11.8403 19.4767 12.8273 18.2703 13.8734Z" fill="#44C395"/>
<path d="M7.86095 12.8863C8.03811 12.9285 8.21527 12.9453 8.384 12.9453C9.37103 12.9453 10.3243 12.3211 11.1848 11.7558C11.826 11.3425 12.484 10.9038 13.0408 10.8026C15.0486 10.4398 16.4659 9.57086 17.2673 8.2295C17.976 7.04 18.5918 6.01078 19.5957 5.63959C20.7177 5.22621 20.954 3.53897 21.1142 2.42539C21.1396 2.2651 21.1649 2.0795 21.1817 1.95296C21.7132 1.64082 22.2616 1.34555 22.8099 1.05872C23.0799 0.915304 23.1896 0.577856 23.0461 0.29946C22.9027 0.0295015 22.5653 -0.0801693 22.2869 0.0632463C21.6795 0.383823 21.0721 0.721271 20.4815 1.06716C20.4731 1.06716 20.4647 1.07559 20.4562 1.07559C20.4562 1.07559 20.4393 1.08403 20.4309 1.08403C17.4951 2.78814 14.7112 4.77909 12.1465 7.01469C10.4256 8.51634 8.78893 10.1361 7.27042 11.8402C7.27042 11.8402 7.26198 11.8486 7.25354 11.8571C6.58708 12.6163 5.93749 13.384 5.31321 14.177C1.78687 18.6398 0.217738 22.0902 0.0490136 22.4698C-0.0775296 22.7567 0.0490136 23.0857 0.335845 23.2038C0.411771 23.2375 0.487697 23.2544 0.563623 23.2544C0.774528 23.2544 0.985434 23.1279 1.07823 22.9254C1.14572 22.782 2.70642 19.2978 6.19902 14.8857C6.73893 14.2108 7.29572 13.5443 7.86095 12.8863Z" fill="#666666"/>
<path d="M12.8894 7.87515C15.0912 5.96013 17.4534 4.22227 19.9421 2.69531C19.883 3.06651 19.8155 3.45457 19.6974 3.80889C19.554 4.23914 19.3768 4.52597 19.2081 4.59346C17.833 5.09963 17.0569 6.39881 16.3061 7.66424C15.6818 8.71877 14.5176 9.4021 12.8388 9.70581C12.0626 9.84922 11.3034 10.347 10.5694 10.8194C9.9789 11.2075 9.41367 11.5786 8.89062 11.7389C10.1476 10.3807 11.489 9.08996 12.881 7.86671L12.8894 7.87515Z" fill="#44C395"/>
<path d="M12.087 15.0292C12.087 15.0292 12.0786 14.9954 12.0702 14.9786C12.0702 14.9617 12.0533 14.9448 12.0448 14.9279C12.0364 14.9111 12.028 14.8942 12.0195 14.8773C12.0111 14.8605 11.9942 14.8436 11.9858 14.8351C11.9774 14.8183 11.9605 14.8098 11.952 14.793C11.9436 14.7761 11.9267 14.7677 11.9099 14.7592C11.893 14.7508 11.8846 14.7339 11.8677 14.7255C11.8508 14.717 11.8339 14.7086 11.8171 14.7002C11.8002 14.6917 11.7833 14.6833 11.7664 14.6749C11.7496 14.6749 11.7327 14.6664 11.7158 14.658C11.699 14.6495 11.6821 14.6495 11.6652 14.6495C11.6483 14.6495 11.6315 14.6495 11.6146 14.6411C11.5809 14.6411 11.5387 14.6411 11.5049 14.6411C11.4881 14.6411 11.4712 14.6411 11.4543 14.6495C11.4374 14.6495 11.4206 14.658 11.4037 14.658C11.3868 14.658 11.3699 14.6664 11.3531 14.6749C11.3362 14.6749 11.3193 14.6917 11.3025 14.7002C11.2856 14.7086 11.2687 14.717 11.2518 14.7255C11.235 14.7339 11.2181 14.7508 11.2097 14.7592C11.1928 14.7677 11.1843 14.7845 11.1675 14.793C11.1506 14.8014 11.1422 14.8183 11.1337 14.8351C11.1253 14.852 11.1084 14.8605 11.1 14.8773C11.0916 14.8942 11.0831 14.9111 11.0747 14.9279C11.0662 14.9448 11.0578 14.9617 11.0494 14.9786C11.0494 14.9954 11.0409 15.0123 11.0325 15.0292C11.0241 15.0461 11.0241 15.0629 11.0241 15.0798C11.0241 15.0967 11.0241 15.1135 11.0156 15.1304V15.2401C11.0156 15.2401 11.0156 15.2738 11.0241 15.2907C11.0241 15.3076 11.0325 15.3244 11.0325 15.3413C11.0325 15.3582 11.0409 15.3751 11.0494 15.3919C11.0494 15.4088 11.0662 15.4257 11.0747 15.4426C11.0831 15.4594 11.0916 15.4763 11.1 15.4932C11.1084 15.51 11.1253 15.5269 11.1337 15.5354C11.1422 15.5438 11.159 15.5607 11.1675 15.5775C11.1759 15.5944 11.1928 15.6028 11.2097 15.6113C11.2265 15.6197 11.235 15.6366 11.2518 15.645C11.2687 15.6535 11.2856 15.6619 11.3025 15.6703C11.3193 15.6788 11.3362 15.6872 11.3531 15.6956C11.3699 15.6956 11.3868 15.7041 11.4037 15.7125C11.4206 15.7209 11.4374 15.7209 11.4543 15.7209C11.4712 15.7209 11.4881 15.7209 11.5049 15.7294H11.6146C11.6146 15.7294 11.6483 15.7294 11.6652 15.7209C11.6821 15.7209 11.699 15.7125 11.7158 15.7125C11.7327 15.7125 11.7496 15.7041 11.7664 15.6956C11.7833 15.6956 11.8002 15.6788 11.8171 15.6703C11.8339 15.6619 11.8508 15.6535 11.8677 15.645C11.8846 15.6366 11.9014 15.6197 11.9099 15.6113C11.9267 15.6028 11.9352 15.586 11.952 15.5775C11.9689 15.5691 11.9774 15.5522 11.9858 15.5354C11.9942 15.5185 12.0111 15.51 12.0195 15.4932C12.028 15.4763 12.0364 15.4594 12.0448 15.4426C12.0533 15.4257 12.0617 15.4088 12.0702 15.3919C12.0702 15.3751 12.0786 15.3582 12.087 15.3413C12.0955 15.3244 12.0955 15.3076 12.0955 15.2907C12.0955 15.2738 12.0955 15.257 12.1039 15.2401V15.1304C12.1039 15.1304 12.1039 15.0967 12.0955 15.0798C12.0955 15.0629 12.087 15.0461 12.087 15.0292Z" fill="#666666"/>
<path d="M23.0132 4.01983C23.0132 4.01983 22.9794 4.01139 22.9625 4.00296C22.9457 3.99452 22.9288 3.99452 22.9119 3.99452C22.8951 3.99452 22.8782 3.99452 22.8529 3.98608C22.8191 3.98608 22.777 3.98608 22.7432 3.98608C22.7263 3.98608 22.7095 3.98608 22.6926 3.99452C22.6757 3.99452 22.6588 4.00296 22.642 4.00296C22.6251 4.00296 22.6082 4.01139 22.5914 4.01983C22.5745 4.01983 22.5576 4.0367 22.5407 4.04514C22.5239 4.05357 22.507 4.06201 22.4901 4.07045C22.4732 4.07888 22.4564 4.09576 22.4479 4.10419C22.4311 4.11263 22.4226 4.1295 22.4058 4.13794C22.3973 4.14637 22.3805 4.16324 22.372 4.18012C22.3636 4.19699 22.3467 4.20543 22.3383 4.2223C22.3298 4.23917 22.3214 4.25604 22.313 4.27292C22.3045 4.28979 22.2961 4.30666 22.2877 4.32353C22.2877 4.34041 22.2792 4.35728 22.2708 4.37415C22.2623 4.39102 22.2623 4.40789 22.2623 4.42477C22.2623 4.44164 22.2623 4.45851 22.2539 4.47538V4.58506C22.2539 4.58506 22.2539 4.6188 22.2623 4.63567C22.2623 4.65255 22.2708 4.66942 22.2708 4.68629C22.2708 4.70316 22.2792 4.72004 22.2877 4.73691C22.2877 4.75378 22.3045 4.77065 22.313 4.78752C22.3214 4.8044 22.3298 4.82127 22.3383 4.83814C22.3467 4.85501 22.3636 4.87189 22.372 4.88032C22.3805 4.8972 22.3973 4.90563 22.4058 4.9225C22.4142 4.93938 22.4311 4.94781 22.4479 4.95625C22.4648 4.96469 22.4732 4.98156 22.4901 4.98999C22.507 4.99843 22.5239 5.00687 22.5407 5.0153C22.5576 5.02374 22.5745 5.03217 22.5914 5.04061C22.6082 5.04061 22.6251 5.04905 22.642 5.05748C22.6588 5.06592 22.6757 5.06592 22.6926 5.06592C22.7095 5.06592 22.7263 5.06592 22.7432 5.07436H22.8529C22.8529 5.07436 22.8866 5.07436 22.9119 5.06592C22.9288 5.06592 22.9457 5.05748 22.9625 5.05748C22.9794 5.05748 22.9963 5.04905 23.0132 5.04061C23.03 5.03217 23.0469 5.02374 23.0638 5.0153C23.0807 5.00687 23.0975 4.99843 23.1144 4.98999C23.1313 4.98156 23.1481 4.96469 23.1566 4.95625C23.1735 4.94781 23.1819 4.93094 23.1988 4.9225C23.2072 4.91407 23.2241 4.8972 23.2325 4.88032C23.2409 4.86345 23.2578 4.85501 23.2663 4.83814C23.2747 4.82127 23.2831 4.8044 23.2916 4.78752C23.3 4.77065 23.3084 4.75378 23.3169 4.73691C23.3253 4.72004 23.3253 4.70316 23.3337 4.68629C23.3337 4.66942 23.3422 4.65255 23.3422 4.63567C23.3422 4.6188 23.3422 4.60193 23.3506 4.58506V4.47538C23.3506 4.47538 23.3506 4.44164 23.3422 4.42477C23.3422 4.40789 23.3337 4.39102 23.3337 4.37415C23.3337 4.35728 23.3253 4.34041 23.3169 4.32353C23.3169 4.30666 23.3 4.28979 23.2916 4.27292C23.2831 4.25604 23.2747 4.23917 23.2663 4.2223C23.2578 4.20543 23.2409 4.18855 23.2325 4.18012C23.2241 4.16324 23.2072 4.15481 23.1988 4.13794C23.1903 4.12106 23.1735 4.11263 23.1566 4.10419C23.1397 4.09576 23.1313 4.07888 23.1144 4.07045C23.0975 4.06201 23.0807 4.05357 23.0638 4.04514C23.0469 4.0367 23.03 4.02827 23.0132 4.01983Z" fill="#666666"/>
<path d="M22.8292 7.4618C22.8292 7.4618 22.8208 7.42805 22.8123 7.41118C22.8123 7.39431 22.7955 7.37743 22.787 7.36056C22.7786 7.34369 22.7702 7.32682 22.7617 7.30994C22.7533 7.29307 22.7364 7.2762 22.728 7.26776C22.7195 7.25089 22.7027 7.24246 22.6942 7.22558C22.6858 7.20871 22.6689 7.20027 22.6521 7.19184C22.6352 7.1834 22.6267 7.16653 22.6099 7.15809C22.593 7.14966 22.5761 7.14122 22.5593 7.13278C22.5424 7.12435 22.5255 7.11591 22.5086 7.10748C22.4918 7.10748 22.4749 7.09904 22.458 7.0906C22.4411 7.08217 22.4243 7.08217 22.4074 7.08217C22.3905 7.08217 22.3737 7.08217 22.3568 7.07373C22.323 7.07373 22.2809 7.07373 22.2471 7.07373C22.2302 7.07373 22.2134 7.07373 22.1965 7.08217C22.1796 7.08217 22.1628 7.0906 22.1459 7.0906C22.129 7.0906 22.1121 7.09904 22.0953 7.10748C22.0784 7.10748 22.0615 7.12435 22.0446 7.13278C22.0278 7.14122 22.0109 7.14966 21.994 7.15809C21.9772 7.16653 21.9603 7.1834 21.9518 7.19184C21.935 7.20027 21.9265 7.21715 21.9097 7.22558C21.8928 7.23402 21.8844 7.25089 21.8759 7.26776C21.8675 7.28464 21.8506 7.29307 21.8422 7.30994C21.8337 7.32682 21.8253 7.34369 21.8169 7.36056C21.8084 7.37743 21.8 7.39431 21.7916 7.41118C21.7916 7.42805 21.7831 7.44492 21.7747 7.4618C21.7662 7.47867 21.7662 7.49554 21.7662 7.51241C21.7662 7.52929 21.7662 7.54616 21.7578 7.57147V7.68114C21.7578 7.68114 21.7578 7.71488 21.7662 7.73176C21.7662 7.74863 21.7747 7.7655 21.7747 7.78237C21.7747 7.79925 21.7831 7.81612 21.7916 7.83299C21.7916 7.84986 21.8084 7.86673 21.8169 7.88361C21.8253 7.90048 21.8337 7.91735 21.8422 7.93422C21.8506 7.9511 21.8675 7.96797 21.8759 7.97641C21.8844 7.99328 21.9012 8.00171 21.9097 8.01859C21.9181 8.03546 21.935 8.0439 21.9518 8.05233C21.9687 8.06077 21.9772 8.07764 21.994 8.08608C22.0109 8.09451 22.0278 8.10295 22.0446 8.11138C22.0615 8.11982 22.0784 8.12826 22.0953 8.13669C22.1121 8.13669 22.129 8.14513 22.1459 8.15357C22.1628 8.162 22.1796 8.162 22.1965 8.162C22.2134 8.162 22.2302 8.162 22.2471 8.17044H22.3568C22.3568 8.17044 22.3905 8.17044 22.4074 8.162C22.4243 8.162 22.4411 8.15357 22.458 8.15357C22.4749 8.15357 22.4918 8.14513 22.5086 8.13669C22.5255 8.13669 22.5424 8.11982 22.5593 8.11138C22.5761 8.10295 22.593 8.09451 22.6099 8.08608C22.6267 8.07764 22.6436 8.06077 22.6521 8.05233C22.6689 8.0439 22.6774 8.02702 22.6942 8.01859C22.7111 8.01015 22.7195 7.99328 22.728 7.97641C22.7364 7.95953 22.7533 7.9511 22.7617 7.93422C22.7702 7.91735 22.7786 7.90048 22.787 7.88361C22.7955 7.86673 22.8039 7.84986 22.8123 7.83299C22.8123 7.81612 22.8208 7.79925 22.8292 7.78237C22.8376 7.7655 22.8376 7.74863 22.8376 7.73176C22.8376 7.71488 22.8376 7.69801 22.8461 7.68114V7.57147C22.8461 7.57147 22.8461 7.53772 22.8376 7.51241C22.8376 7.49554 22.8292 7.47867 22.8292 7.4618Z" fill="#666666"/>
<path d="M9.67359 16.556C9.67359 16.556 9.66515 16.5223 9.65671 16.5054C9.65671 16.4885 9.63984 16.4717 9.63141 16.4548C9.62297 16.4379 9.61453 16.4211 9.6061 16.4042C9.59766 16.3873 9.58079 16.3704 9.57235 16.362C9.56392 16.3451 9.54704 16.3367 9.53861 16.3198C9.53017 16.3029 9.5133 16.2945 9.49643 16.2861C9.47955 16.2776 9.47112 16.2608 9.45424 16.2523C9.43737 16.2439 9.4205 16.2355 9.40363 16.227C9.38675 16.2186 9.36988 16.2102 9.35301 16.2017C9.33614 16.2017 9.31926 16.1933 9.30239 16.1848C9.28552 16.1764 9.26865 16.1764 9.25178 16.1764C9.2349 16.1764 9.21803 16.1764 9.19272 16.168C9.15898 16.168 9.1168 16.168 9.08305 16.168C9.06618 16.168 9.04931 16.168 9.03243 16.1764C9.01556 16.1764 8.99869 16.1848 8.98182 16.1848C8.96494 16.1848 8.94807 16.1933 8.9312 16.2017C8.91433 16.2017 8.89745 16.2186 8.88058 16.227C8.86371 16.2355 8.84684 16.2439 8.82996 16.2523C8.81309 16.2608 8.79622 16.2776 8.78778 16.2861C8.77091 16.2945 8.76247 16.3114 8.7456 16.3198C8.72873 16.3283 8.72029 16.3451 8.71186 16.362C8.70342 16.3789 8.68655 16.3873 8.67811 16.4042C8.66968 16.4211 8.66124 16.4379 8.6528 16.4548C8.64437 16.4717 8.63593 16.4885 8.62749 16.5054C8.62749 16.5223 8.61906 16.5392 8.61062 16.556C8.60219 16.5729 8.60219 16.5898 8.60219 16.6067C8.60219 16.6235 8.60219 16.6404 8.59375 16.6573V16.7669C8.59375 16.7669 8.59375 16.8007 8.60219 16.826C8.60219 16.8429 8.61062 16.8597 8.61062 16.8766C8.61062 16.8935 8.61906 16.9104 8.62749 16.9272C8.62749 16.9441 8.64437 16.961 8.6528 16.9778C8.66124 16.9947 8.66968 17.0116 8.67811 17.0285C8.68655 17.0453 8.70342 17.0622 8.71186 17.0706C8.72029 17.0791 8.73717 17.096 8.7456 17.1128C8.75404 17.1297 8.77091 17.1381 8.78778 17.1466C8.80466 17.155 8.81309 17.1719 8.82996 17.1803C8.84684 17.1888 8.86371 17.1972 8.88058 17.2056C8.89745 17.2141 8.91433 17.2225 8.9312 17.2309C8.94807 17.2309 8.96494 17.2394 8.98182 17.2478C8.99869 17.2562 9.01556 17.2562 9.03243 17.2562C9.04931 17.2562 9.06618 17.2562 9.08305 17.2647H9.19272C9.19272 17.2647 9.22647 17.2647 9.25178 17.2562C9.26865 17.2562 9.28552 17.2478 9.30239 17.2478C9.31926 17.2478 9.33614 17.2394 9.35301 17.2309C9.36988 17.2309 9.38675 17.2141 9.40363 17.2056C9.4205 17.1972 9.43737 17.1888 9.45424 17.1803C9.47112 17.1719 9.48799 17.155 9.49643 17.1466C9.5133 17.1381 9.52173 17.1213 9.53861 17.1128C9.55548 17.1044 9.56392 17.0875 9.57235 17.0706C9.58079 17.0538 9.59766 17.0453 9.6061 17.0285C9.61453 17.0116 9.62297 16.9947 9.63141 16.9778C9.63984 16.961 9.64828 16.9441 9.65671 16.9272C9.66515 16.9104 9.66515 16.8935 9.67359 16.8766C9.68202 16.8597 9.68202 16.8429 9.68202 16.826C9.68202 16.8091 9.68202 16.7922 9.69046 16.7669V16.6573C9.69046 16.6573 9.69046 16.6235 9.68202 16.6067C9.68202 16.5898 9.67359 16.5729 9.67359 16.556Z" fill="#666666"/>
<path d="M5.67749 22.5879C5.67749 22.5879 5.66906 22.5541 5.66906 22.5372C5.66906 22.5204 5.66062 22.5035 5.65218 22.4866C5.65218 22.4697 5.63531 22.4529 5.62688 22.436C5.61844 22.4191 5.61 22.4023 5.60157 22.3854C5.59313 22.3685 5.57626 22.3516 5.56782 22.3432C5.55939 22.3263 5.54251 22.3179 5.53408 22.301C5.52564 22.2841 5.50877 22.2757 5.4919 22.2673C5.47502 22.2588 5.46659 22.242 5.44971 22.2335C5.43284 22.2251 5.41597 22.2167 5.3991 22.2082C5.38222 22.1998 5.36535 22.1914 5.34848 22.1829C5.33161 22.1829 5.31474 22.1745 5.29786 22.166C5.28099 22.1576 5.26412 22.1576 5.24724 22.1576C5.23037 22.1576 5.2135 22.1576 5.19663 22.1492C5.16288 22.1492 5.1207 22.1492 5.08696 22.1492C5.07008 22.1492 5.05321 22.1492 5.03634 22.1576C5.01947 22.1576 5.00259 22.166 4.98572 22.166C4.96885 22.166 4.95198 22.1745 4.93511 22.1829C4.91823 22.1829 4.90136 22.1998 4.88449 22.2082C4.86762 22.2167 4.85074 22.2251 4.83387 22.2335C4.817 22.242 4.80013 22.2588 4.79169 22.2673C4.77482 22.2757 4.76638 22.2926 4.74951 22.301C4.73264 22.3095 4.7242 22.3263 4.71576 22.3432C4.70733 22.3601 4.69045 22.3685 4.68202 22.3854C4.67358 22.4023 4.66515 22.4191 4.65671 22.436C4.64827 22.4529 4.63984 22.4697 4.6314 22.4866C4.6314 22.5035 4.62296 22.5204 4.61453 22.5372C4.60609 22.5541 4.60609 22.571 4.60609 22.5879C4.60609 22.6047 4.60609 22.6216 4.59766 22.6385V22.7481C4.59766 22.7481 4.59766 22.7819 4.60609 22.7988C4.60609 22.8156 4.61453 22.8325 4.61453 22.8494C4.61453 22.8662 4.62296 22.8831 4.6314 22.9C4.6314 22.9169 4.64827 22.9337 4.65671 22.9506C4.66515 22.9675 4.67358 22.9844 4.68202 23.0012C4.69045 23.0181 4.70733 23.035 4.71576 23.0434C4.7242 23.0603 4.74107 23.0687 4.74951 23.0856C4.75794 23.1025 4.77482 23.1109 4.79169 23.1193C4.80856 23.1278 4.817 23.1446 4.83387 23.1531C4.85074 23.1615 4.86762 23.17 4.88449 23.1784C4.90136 23.1868 4.91823 23.1953 4.93511 23.2037C4.95198 23.2037 4.96885 23.2121 4.98572 23.2206C5.00259 23.229 5.01947 23.229 5.03634 23.229C5.05321 23.229 5.07008 23.229 5.08696 23.2374H5.19663C5.19663 23.2374 5.23037 23.2374 5.24724 23.229C5.26412 23.229 5.28099 23.2206 5.29786 23.2206C5.31474 23.2206 5.33161 23.2121 5.34848 23.2037C5.36535 23.2037 5.38222 23.1868 5.3991 23.1784C5.41597 23.17 5.43284 23.1615 5.44971 23.1531C5.46659 23.1446 5.48346 23.1278 5.4919 23.1193C5.50877 23.1109 5.5172 23.094 5.53408 23.0856C5.55095 23.0772 5.55939 23.0603 5.56782 23.0434C5.57626 23.0265 5.59313 23.0181 5.60157 23.0012C5.61 22.9844 5.61844 22.9675 5.62688 22.9506C5.63531 22.9337 5.64375 22.9169 5.65218 22.9C5.65218 22.8831 5.66062 22.8662 5.66906 22.8494C5.67749 22.8325 5.67749 22.8156 5.67749 22.7988C5.67749 22.7819 5.67749 22.765 5.68593 22.7481V22.6385C5.68593 22.6385 5.68593 22.6047 5.67749 22.5879Z" fill="#666666"/>
<path d="M6.82265 18.218C6.82265 18.218 6.81421 18.1842 6.81421 18.1674C6.81421 18.1505 6.80577 18.1336 6.79734 18.1167C6.79734 18.0999 6.78047 18.083 6.77203 18.0661C6.76359 18.0493 6.75516 18.0324 6.74672 18.0155C6.73828 17.9986 6.72141 17.9818 6.71298 17.9733C6.70454 17.9565 6.68767 17.948 6.67923 17.9311C6.6708 17.9143 6.65392 17.9058 6.63705 17.8974C6.62018 17.889 6.61174 17.8721 6.59487 17.8637C6.578 17.8552 6.56112 17.8468 6.54425 17.8384C6.52738 17.8299 6.51051 17.8215 6.49363 17.813C6.47676 17.813 6.45989 17.8046 6.44302 17.7962C6.42614 17.7877 6.40927 17.7877 6.3924 17.7877C6.37553 17.7877 6.35865 17.7877 6.34178 17.7793C6.30804 17.7793 6.26586 17.7793 6.23211 17.7793C6.21524 17.7793 6.19837 17.7793 6.17306 17.7877C6.15619 17.7877 6.13931 17.7962 6.12244 17.7962C6.10557 17.7962 6.0887 17.8046 6.07182 17.813C6.05495 17.813 6.03808 17.8299 6.02121 17.8384C6.00433 17.8468 5.98746 17.8552 5.97059 17.8637C5.95372 17.8721 5.93684 17.889 5.92841 17.8974C5.91154 17.9058 5.9031 17.9227 5.88623 17.9311C5.86935 17.9396 5.86092 17.9565 5.85248 17.9733C5.84405 17.9902 5.82717 17.9986 5.81874 18.0155C5.8103 18.0324 5.80186 18.0493 5.79343 18.0661C5.78499 18.083 5.77656 18.0999 5.76812 18.1167C5.76812 18.1336 5.75968 18.1505 5.75125 18.1674C5.74281 18.1842 5.74281 18.2011 5.74281 18.218C5.74281 18.2349 5.74281 18.2517 5.73438 18.277V18.3867C5.73438 18.3867 5.73437 18.4204 5.74281 18.4373C5.74281 18.4542 5.75125 18.4711 5.75125 18.4879C5.75125 18.5048 5.75968 18.5217 5.76812 18.5386C5.76812 18.5554 5.78499 18.5723 5.79343 18.5892C5.80186 18.606 5.8103 18.6229 5.81874 18.6398C5.82717 18.6567 5.84405 18.6735 5.85248 18.682C5.86092 18.6988 5.87779 18.7073 5.88623 18.7242C5.89466 18.741 5.91154 18.7495 5.92841 18.7579C5.94528 18.7663 5.95372 18.7832 5.97059 18.7916C5.98746 18.8001 6.00433 18.8085 6.02121 18.817C6.03808 18.8254 6.05495 18.8338 6.07182 18.8423C6.0887 18.8423 6.10557 18.8507 6.12244 18.8591C6.13931 18.8676 6.15619 18.8676 6.17306 18.8676C6.18993 18.8676 6.2068 18.8676 6.23211 18.876H6.34178C6.34178 18.876 6.37553 18.876 6.3924 18.8676C6.40927 18.8676 6.42614 18.8591 6.44302 18.8591C6.45989 18.8591 6.47676 18.8507 6.49363 18.8423C6.51051 18.8423 6.52738 18.8254 6.54425 18.817C6.56112 18.8085 6.578 18.8001 6.59487 18.7916C6.61174 18.7832 6.62861 18.7663 6.63705 18.7579C6.65392 18.7495 6.66236 18.7326 6.67923 18.7242C6.6961 18.7157 6.70454 18.6988 6.71298 18.682C6.72141 18.6651 6.73828 18.6567 6.74672 18.6398C6.75516 18.6229 6.76359 18.606 6.77203 18.5892C6.78047 18.5723 6.7889 18.5554 6.79734 18.5386C6.79734 18.5217 6.80577 18.5048 6.81421 18.4879C6.82265 18.4711 6.82265 18.4542 6.82265 18.4373C6.82265 18.4204 6.82265 18.4036 6.83108 18.3867V18.277C6.83108 18.277 6.83108 18.2433 6.82265 18.218Z" fill="#666666"/>
<path d="M19.5519 8.52478C19.5519 8.52478 19.5434 8.49104 19.535 8.47417C19.535 8.45729 19.5181 8.44042 19.5097 8.42355C19.5013 8.40668 19.4928 8.38981 19.4844 8.37293C19.4759 8.35606 19.4591 8.33919 19.4506 8.33075C19.4422 8.31388 19.4253 8.30544 19.4169 8.28857C19.4085 8.2717 19.3916 8.26326 19.3747 8.25483C19.3578 8.24639 19.3494 8.22952 19.3325 8.22108C19.3157 8.21264 19.2988 8.20421 19.2819 8.19577C19.265 8.18734 19.2482 8.1789 19.2313 8.17046C19.2144 8.17046 19.1975 8.16203 19.1807 8.15359C19.1638 8.14515 19.1469 8.14515 19.1301 8.14515C19.1132 8.14515 19.0963 8.14515 19.0794 8.13672C19.0457 8.13672 19.0035 8.13672 18.9698 8.13672C18.9529 8.13672 18.936 8.13672 18.9192 8.14515C18.9023 8.14515 18.8854 8.15359 18.8685 8.15359C18.8517 8.15359 18.8348 8.16203 18.8179 8.17046C18.801 8.17046 18.7842 8.18734 18.7673 8.19577C18.7504 8.20421 18.7336 8.21264 18.7167 8.22108C18.6998 8.22952 18.6829 8.24639 18.6745 8.25483C18.6576 8.26326 18.6492 8.28013 18.6323 8.28857C18.6154 8.29701 18.607 8.31388 18.5986 8.33075C18.5901 8.34762 18.5733 8.35606 18.5648 8.37293C18.5564 8.38981 18.548 8.40668 18.5395 8.42355C18.5311 8.44042 18.5227 8.45729 18.5142 8.47417C18.5142 8.49104 18.5058 8.50791 18.4973 8.52478C18.4889 8.54166 18.4889 8.55853 18.4889 8.5754C18.4889 8.59227 18.4889 8.60915 18.4805 8.62602V8.73569C18.4805 8.73569 18.4805 8.76943 18.4889 8.78631C18.4889 8.80318 18.4973 8.82005 18.4973 8.83692C18.4973 8.8538 18.5058 8.87067 18.5142 8.88754C18.5142 8.90441 18.5311 8.92129 18.5395 8.93816C18.548 8.95503 18.5564 8.9719 18.5648 8.98878C18.5733 9.00565 18.5901 9.02252 18.5986 9.03096C18.607 9.04783 18.6239 9.05627 18.6323 9.07314C18.6408 9.09001 18.6576 9.09845 18.6745 9.10688C18.6914 9.11532 18.6998 9.13219 18.7167 9.14063C18.7336 9.14906 18.7504 9.1575 18.7673 9.16594C18.7842 9.17437 18.801 9.18281 18.8179 9.19125C18.8348 9.19125 18.8517 9.19968 18.8685 9.20812C18.8854 9.21655 18.9023 9.21655 18.9192 9.21655C18.936 9.21655 18.9529 9.21655 18.9698 9.22499H19.0794C19.0794 9.22499 19.1132 9.22499 19.1301 9.21655C19.1469 9.21655 19.1638 9.20812 19.1807 9.20812C19.1975 9.20812 19.2144 9.19968 19.2313 9.19125C19.2482 9.19125 19.265 9.17437 19.2819 9.16594C19.2988 9.1575 19.3157 9.14906 19.3325 9.14063C19.3494 9.13219 19.3663 9.11532 19.3747 9.10688C19.3916 9.09845 19.4 9.08157 19.4169 9.07314C19.4338 9.0647 19.4422 9.04783 19.4506 9.03096C19.4591 9.01408 19.4759 9.00565 19.4844 8.98878C19.4928 8.9719 19.5013 8.95503 19.5097 8.93816C19.5181 8.92129 19.5266 8.90441 19.535 8.88754C19.535 8.87067 19.5434 8.8538 19.5519 8.83692C19.5603 8.82005 19.5603 8.80318 19.5603 8.78631C19.5603 8.76943 19.5603 8.75256 19.5687 8.73569V8.62602C19.5687 8.62602 19.5687 8.59227 19.5603 8.5754C19.5603 8.55853 19.5519 8.54166 19.5519 8.52478Z" fill="#666666"/>
<path d="M8.46583 21.449C8.46583 21.449 8.49958 21.4405 8.51645 21.4321C8.53332 21.4321 8.55019 21.4152 8.56707 21.4068C8.58394 21.3984 8.60081 21.3899 8.61768 21.3815C8.63456 21.3731 8.65143 21.3562 8.65986 21.3477C8.67674 21.3393 8.68517 21.3224 8.70204 21.314C8.71892 21.3056 8.72735 21.2887 8.73579 21.2718C8.74423 21.2549 8.7611 21.2465 8.76953 21.2296C8.77797 21.2128 8.78641 21.1959 8.79484 21.179C8.80328 21.1621 8.81172 21.1453 8.82015 21.1284C8.82015 21.1115 8.82859 21.0947 8.83702 21.0778C8.84546 21.0609 8.84546 21.044 8.84546 21.0272C8.84546 21.0103 8.84546 20.9934 8.8539 20.9681V20.8584C8.8539 20.8584 8.8539 20.8247 8.84546 20.8078C8.84546 20.791 8.83702 20.7741 8.83702 20.7572C8.83702 20.7403 8.82859 20.7235 8.82015 20.7066C8.82015 20.6897 8.80328 20.6728 8.79484 20.656C8.78641 20.6391 8.77797 20.6222 8.76953 20.6054C8.7611 20.5885 8.74423 20.5716 8.73579 20.5632C8.72735 20.5463 8.71048 20.5379 8.70204 20.521C8.69361 20.5041 8.67674 20.4957 8.65986 20.4872C8.64299 20.4788 8.63456 20.4619 8.61768 20.4535C8.60081 20.4451 8.58394 20.4366 8.56707 20.4282C8.55019 20.4198 8.53332 20.4113 8.51645 20.4029C8.49958 20.4029 8.4827 20.3944 8.46583 20.386C8.44896 20.3776 8.43209 20.3776 8.41521 20.3776C8.39834 20.3776 8.38147 20.3776 8.3646 20.3691C8.33085 20.3691 8.28867 20.3691 8.25493 20.3691C8.23805 20.3691 8.22118 20.3691 8.20431 20.3776C8.18744 20.3776 8.17056 20.386 8.15369 20.386C8.13682 20.386 8.11995 20.3945 8.10307 20.4029C8.0862 20.4029 8.06933 20.4198 8.05246 20.4282C8.03558 20.4366 8.01871 20.4451 8.00184 20.4535C7.98497 20.4619 7.96809 20.4788 7.95966 20.4872C7.94279 20.4957 7.93435 20.5126 7.91748 20.521C7.9006 20.5294 7.89217 20.5463 7.88373 20.5632C7.8753 20.58 7.85842 20.5885 7.84999 20.6054C7.84155 20.6222 7.83311 20.6391 7.82468 20.656C7.81624 20.6728 7.80781 20.6897 7.79937 20.7066C7.79937 20.7235 7.79093 20.7403 7.7825 20.7572C7.77406 20.7741 7.77406 20.791 7.77406 20.8078C7.77406 20.8247 7.77406 20.8416 7.76562 20.8584V20.9681C7.76562 20.9681 7.76563 21.0019 7.77406 21.0272C7.77406 21.044 7.7825 21.0609 7.7825 21.0778C7.7825 21.0947 7.79093 21.1115 7.79937 21.1284C7.79937 21.1453 7.81624 21.1621 7.82468 21.179C7.83311 21.1959 7.84155 21.2128 7.84999 21.2296C7.85842 21.2465 7.8753 21.2634 7.88373 21.2718C7.89217 21.2887 7.90904 21.2971 7.91748 21.314C7.92591 21.3309 7.94279 21.3393 7.95966 21.3477C7.97653 21.3562 7.98497 21.3731 8.00184 21.3815C8.01871 21.3899 8.03558 21.3984 8.05246 21.4068C8.06933 21.4152 8.0862 21.4237 8.10307 21.4321C8.11995 21.4321 8.13682 21.4405 8.15369 21.449C8.17056 21.4574 8.18744 21.4574 8.20431 21.4574C8.22118 21.4574 8.23805 21.4574 8.25493 21.4658H8.3646C8.3646 21.4658 8.39834 21.4658 8.41521 21.4574C8.43209 21.4574 8.44896 21.449 8.46583 21.449Z" fill="#666666"/>
</svg>
