<svg width="18" height="19" viewBox="0 0 18 19" fill="none" xmlns="http://www.w3.org/2000/svg">
<path d="M9.67107 1.09539C9.23275 0.968203 8.76723 0.968203 8.32892 1.09539C8.02484 1.18365 7.77268 1.33885 7.5374 1.51638C7.31578 1.68357 7.06624 1.90463 6.77888 2.1592L2.56545 5.89149L2.49826 5.95097C2.08093 6.32025 1.76566 6.59923 1.53516 6.94476C1.34032 7.23686 1.19516 7.55897 1.10553 7.89818C0.999519 8.29942 0.999735 8.71956 1.00003 9.2757L1.00005 9.36531V13.3857L1.00005 13.3858C1.00005 14.0383 1.00004 14.5768 1.03657 15.0153C1.07453 15.4707 1.15603 15.8892 1.36033 16.2811C1.66393 16.8636 2.14047 17.3384 2.72492 17.6409C3.11823 17.8445 3.5381 17.9258 3.99517 17.9636C4.43518 18 4.97561 18 5.63044 18H5.95601H5.97483H5.97753C6.07387 18 6.18838 18 6.28933 17.9916C6.40748 17.9819 6.57661 17.9568 6.75318 17.8654C6.97235 17.7519 7.15105 17.5738 7.2649 17.3554C7.35662 17.1794 7.38182 17.0109 7.39163 16.8931C7.40008 16.7921 7.40004 16.6774 7.40001 16.5812V16.5798L7.4 14.0139C7.4 13.1333 8.11636 12.4195 9.00003 12.4195C9.88362 12.4195 10.6 13.1333 10.6 14.0139L10.5999 16.5798V16.5824C10.5999 16.6784 10.5999 16.7926 10.6083 16.8931C10.6182 17.0109 10.6434 17.1794 10.7351 17.3554C10.8489 17.5738 11.0276 17.7519 11.2468 17.8654C11.4234 17.9568 11.5925 17.9819 11.7106 17.9916C11.8116 18 11.9261 18 12.0224 18H12.0251H12.044H12.3695C13.0244 18 13.5648 18 14.0048 17.9636C14.4619 17.9258 14.8817 17.8445 15.2751 17.6409C15.8595 17.3384 16.3361 16.8636 16.6396 16.2811C16.844 15.8892 16.9255 15.4707 16.9634 15.0153C17 14.5768 17 14.0382 17 13.3857V9.36531V9.2757C17.0003 8.71956 17.0004 8.29942 16.8944 7.89818C16.8048 7.55897 16.6596 7.23686 16.4649 6.94476C16.2343 6.59923 15.9191 6.32025 15.5017 5.95096L15.4345 5.89149L11.2211 2.15919C10.9338 1.90463 10.6842 1.68357 10.4626 1.51638C10.2273 1.33885 9.97514 1.18365 9.67107 1.09539Z" stroke="#666666"/>
</svg>
