<svg width="16" height="16" viewBox="0 0 16 17" fill="none" xmlns="http://www.w3.org/2000/svg">
<path d="M8.67107 0.0953914C8.23275 -0.0317971 7.76723 -0.0317971 7.32892 0.0953914C7.02484 0.183652 6.77268 0.338855 6.5374 0.51638C6.31578 0.683573 6.06624 0.904634 5.77888 1.1592L1.56545 4.89149L1.49826 4.95097C1.08093 5.32025 0.765656 5.59923 0.535162 5.94476C0.340316 6.23686 0.195157 6.55897 0.105534 6.89818C-0.000481462 7.29942 -0.000265396 7.71956 3.06015e-05 8.2757L5.46339e-05 8.36531V12.3857L5.46329e-05 12.3858C4.66334e-05 13.0383 4.00282e-05 13.5768 0.0365742 14.0153C0.0745339 14.4707 0.156029 14.8892 0.360332 15.2811C0.663929 15.8636 1.14047 16.3384 1.72492 16.6409C2.11823 16.8445 2.5381 16.9258 2.99517 16.9636C3.43518 17 3.97561 17 4.63044 17H4.95601H4.97483H4.97753C5.07387 17 5.18838 17 5.28933 16.9916C5.40748 16.9819 5.57661 16.9568 5.75318 16.8654C5.97235 16.7519 6.15105 16.5738 6.2649 16.3554C6.35662 16.1794 6.38182 16.0109 6.39163 15.8931C6.40008 15.7921 6.40004 15.6774 6.40001 15.5812V15.5798L6.4 13.0139C6.4 12.1333 7.11636 11.4195 8.00003 11.4195C8.88362 11.4195 9.60002 12.1333 9.60002 13.0139L9.59994 15.5798V15.5824C9.59994 15.6784 9.59993 15.7926 9.60834 15.8931C9.61818 16.0109 9.64338 16.1794 9.73506 16.3554C9.8489 16.5738 10.0276 16.7519 10.2468 16.8654C10.4234 16.9568 10.5925 16.9819 10.7106 16.9916C10.8116 17 10.9261 17 11.0224 17H11.0251H11.044H11.3695C12.0244 17 12.5648 17 13.0048 16.9636C13.4619 16.9258 13.8817 16.8445 14.2751 16.6409C14.8595 16.3384 15.3361 15.8636 15.6396 15.2811C15.844 14.8892 15.9255 14.4707 15.9634 14.0153C16 13.5768 16 13.0382 16 12.3857V8.36531V8.2757C16.0003 7.71956 16.0004 7.29942 15.8944 6.89818C15.8048 6.55897 15.6596 6.23686 15.4649 5.94476C15.2343 5.59923 14.9191 5.32025 14.5017 4.95096L14.4345 4.89149L10.2211 1.15919C9.93377 0.904634 9.68418 0.683573 9.46258 0.51638C9.2273 0.338855 8.97514 0.183652 8.67107 0.0953914Z" fill="#288BEE"/>
</svg>
