<svg width="27" height="31" viewBox="0 0 27 31" fill="none" xmlns="http://www.w3.org/2000/svg">
<path d="M2.21474 16.1172H9.08704C9.28971 16.1172 9.44632 16.1909 9.44632 16.2738V23.2198C9.44632 23.708 8.53431 24.095 7.41964 24.095H3.88215C2.76748 24.095 1.85547 23.6988 1.85547 23.2198V16.2738C1.85547 16.1909 2.01208 16.1172 2.21474 16.1172Z" fill="#44C395"/>
<path d="M23.9492 30.0001H16.2939C15.299 30.0001 14.4883 29.1894 14.4883 28.1945V17.0477C14.4883 16.2002 14.9581 15.4264 15.7135 15.0394L16.8927 14.4314C17.0401 14.3577 17.1322 14.2103 17.1322 14.0445V12.6903C17.1322 12.4877 17.2888 12.3311 17.4915 12.3311H22.77C22.9727 12.3311 23.1293 12.4877 23.1293 12.6903V14.0445C23.1293 14.2103 23.2214 14.3577 23.3688 14.4314L24.548 15.0394C25.3034 15.4264 25.7732 16.2002 25.7732 17.0477V28.1945C25.7732 29.1894 24.9626 30.0001 23.9676 30.0001H23.9492Z" stroke="#666666" stroke-miterlimit="10"/>
<path d="M23.6862 12.3218H16.5468C16.3441 12.3218 16.1875 12.1652 16.1875 11.9625V10.2767C16.1875 9.77002 16.602 9.35547 17.1087 9.35547H23.1243C23.631 9.35547 24.0455 9.77002 24.0455 10.2767V11.9625C24.0455 12.1652 23.8889 12.3218 23.6862 12.3218Z" stroke="#666666" stroke-miterlimit="10"/>
<path d="M4.62099 1H6.72138C6.92404 1 7.08065 1.12897 7.08065 1.28558V5.40343C7.08065 5.56004 6.92404 5.68901 6.72138 5.68901H4.62099C4.41833 5.68901 4.26172 5.56004 4.26172 5.40343V1.28558C4.26172 1.12897 4.41833 1 4.62099 1Z" stroke="#666666" stroke-miterlimit="10"/>
<path d="M2.23428 5.68921H9.10658C9.30924 5.68921 9.46585 5.84582 9.46585 6.04848V22.0685C9.46585 23.1832 8.55384 24.0952 7.43917 24.0952H3.90168C2.78701 24.0952 1.875 23.1832 1.875 22.0685V6.04848C1.875 5.84582 2.03161 5.68921 2.23428 5.68921Z" stroke="#666666" stroke-miterlimit="10"/>
<path d="M1 5.68921H10.3412" stroke="#666666" stroke-miterlimit="10" stroke-linecap="round"/>
<path d="M5.67188 24.1777V29.5853" stroke="#666666" stroke-miterlimit="10" stroke-linecap="round"/>
<path d="M2.78906 1H8.5559" stroke="#666666" stroke-miterlimit="10" stroke-linecap="round"/>
<path d="M20.3997 25.0715C19.3219 25.0715 18.4375 24.1871 18.4375 23.1093C18.4375 22.2986 19.4785 20.8892 20.0312 20.1246C20.1418 19.9772 20.2892 19.7469 20.3444 19.6916C20.3444 19.6916 20.3628 19.6824 20.3721 19.6916C20.5563 19.8758 22.3619 22.096 22.3619 23.1001C22.3619 24.1871 21.4775 25.0623 20.3997 25.0623V25.0715Z" fill="#44C395"/>
</svg>
