<svg width="29" height="32" viewBox="0 0 29 32" fill="none" xmlns="http://www.w3.org/2000/svg">
<path d="M16 30.81H1.19V2.96H7.12V4.15C7.12 4.31 7.18 4.46 7.29 4.57C7.4 4.68 7.55 4.74 7.71 4.74H14.82C14.98 4.74 15.13 4.68 15.24 4.57C15.35 4.46 15.41 4.31 15.41 4.15V2.96H21.34V17.18C21.34 17.51 21.61 17.77 21.93 17.77C22.25 17.77 22.52 17.5 22.52 17.18V2.37C22.52 2.21 22.46 2.06 22.35 1.95C22.24 1.84 22.09 1.78 21.93 1.78H15.41V0.59C15.41 0.43 15.35 0.28 15.24 0.17C15.13 0.06 14.98 0 14.82 0H7.71C7.38 0 7.12 0.27 7.12 0.59V1.78H0.59C0.26 1.78 0 2.05 0 2.37V31.41C0 31.57 0.06 31.72 0.17 31.83C0.28 31.94 0.43 32 0.59 32H16C16.33 32 16.59 31.73 16.59 31.41C16.59 31.09 16.32 30.82 16 30.82V30.81ZM8.3 1.19H14.23V3.56H8.3V1.19Z" fill="#666666"/>
<path d="M8.29859 8.29996C8.29859 8.13996 8.23859 7.98996 8.12859 7.87996C8.01859 7.76996 7.86859 7.70996 7.70859 7.70996H4.14859C3.81859 7.70996 3.55859 7.97996 3.55859 8.29996V11.86C3.55859 12.02 3.61859 12.17 3.72859 12.28C3.83859 12.39 3.98859 12.45 4.14859 12.45H7.70859C7.86859 12.45 8.01859 12.39 8.12859 12.28C8.23859 12.17 8.29859 12.02 8.29859 11.86V8.29996ZM7.10859 11.26H4.73859V8.88996H7.10859V11.26Z" fill="#666666"/>
<path d="M8.29859 16C8.29859 15.84 8.23859 15.69 8.12859 15.58C8.01859 15.47 7.86859 15.41 7.70859 15.41H4.14859C3.81859 15.41 3.55859 15.68 3.55859 16V19.56C3.55859 19.72 3.61859 19.87 3.72859 19.98C3.83859 20.09 3.98859 20.15 4.14859 20.15H7.70859C7.86859 20.15 8.01859 20.09 8.12859 19.98C8.23859 19.87 8.29859 19.72 8.29859 19.56V16ZM7.10859 18.96H4.73859V16.59H7.10859V18.96Z" fill="#666666"/>
<path d="M7.70078 23.11H4.14078C3.81078 23.11 3.55078 23.38 3.55078 23.7V27.26C3.55078 27.42 3.61078 27.57 3.72078 27.68C3.83078 27.79 3.98078 27.85 4.14078 27.85H7.70078C7.86078 27.85 8.01078 27.79 8.12078 27.68C8.23078 27.57 8.29078 27.42 8.29078 27.26V23.7C8.29078 23.54 8.23078 23.39 8.12078 23.28C8.01078 23.17 7.86078 23.11 7.70078 23.11ZM7.11078 26.67H4.74078V24.3H7.11078V26.67Z" fill="#666666"/>
<path d="M18.3705 7.69995H10.0705C9.74047 7.69995 9.48047 7.96995 9.48047 8.28995C9.48047 8.60995 9.75047 8.87995 10.0705 8.87995H18.3705C18.7005 8.87995 18.9605 8.60995 18.9605 8.28995C18.9605 7.96995 18.6905 7.69995 18.3705 7.69995Z" fill="#666666"/>
<path d="M10.0705 12.44H16.0005C16.3305 12.44 16.5905 12.17 16.5905 11.85C16.5905 11.53 16.3205 11.26 16.0005 11.26H10.0705C9.74047 11.26 9.48047 11.53 9.48047 11.85C9.48047 12.17 9.75047 12.44 10.0705 12.44Z" fill="#666666"/>
<path d="M18.9605 16C18.9605 15.84 18.9005 15.69 18.7905 15.58C18.6805 15.47 18.5305 15.41 18.3705 15.41H10.0705C9.74047 15.41 9.48047 15.68 9.48047 16C9.48047 16.32 9.75047 16.59 10.0705 16.59H18.3705C18.5305 16.59 18.6805 16.53 18.7905 16.42C18.9005 16.31 18.9605 16.16 18.9605 16Z" fill="#666666"/>
<path d="M16.5905 19.56C16.5905 19.4 16.5305 19.25 16.4205 19.14C16.3105 19.03 16.1605 18.97 16.0005 18.97H10.0705C9.74047 18.97 9.48047 19.24 9.48047 19.56C9.48047 19.88 9.75047 20.15 10.0705 20.15H16.0005C16.1605 20.15 16.3105 20.09 16.4205 19.98C16.5305 19.87 16.5905 19.72 16.5905 19.56Z" fill="#666666"/>
<path d="M13.6305 23.11H10.0705C9.74047 23.11 9.48047 23.38 9.48047 23.7C9.48047 24.02 9.75047 24.29 10.0705 24.29H13.6305C13.9605 24.29 14.2205 24.02 14.2205 23.7C14.2205 23.38 13.9505 23.11 13.6305 23.11Z" fill="#666666"/>
<path d="M13.6305 26.67H10.0705C9.74047 26.67 9.48047 26.94 9.48047 27.26C9.48047 27.58 9.75047 27.85 10.0705 27.85H13.6305C13.9605 27.85 14.2205 27.58 14.2205 27.26C14.2205 26.94 13.9505 26.67 13.6305 26.67Z" fill="#666666"/>
<path d="M21.9302 18.96C20.2002 18.96 18.5402 19.65 17.3202 20.87C16.1002 22.09 15.4102 23.75 15.4102 25.48C15.4102 27.21 16.1002 28.87 17.3202 30.09C18.5402 31.31 20.2002 32 21.9302 32C23.6602 32 25.3202 31.31 26.5402 30.09C27.7602 28.87 28.4502 27.21 28.4502 25.48C28.4502 23.75 27.7602 22.09 26.5402 20.87C25.3202 19.65 23.6602 18.96 21.9302 18.96ZM21.9302 30.81C20.5202 30.81 19.1602 30.25 18.1602 29.25C17.1602 28.25 16.6002 26.89 16.6002 25.48C16.6002 24.07 17.1602 22.71 18.1602 21.71C19.1602 20.71 20.5202 20.15 21.9302 20.15C23.3402 20.15 24.7002 20.71 25.7002 21.71C26.7002 22.71 27.2602 24.07 27.2602 25.48C27.2602 26.89 26.7002 28.25 25.7002 29.25C24.7002 30.25 23.3402 30.81 21.9302 30.81Z" fill="#666666"/>
<path fill-rule="evenodd" clip-rule="evenodd" d="M24.5514 24.61H22.8014V22.86C22.8014 22.38 22.4114 21.99 21.9314 21.99C21.4514 21.99 21.0614 22.38 21.0614 22.86V24.61H19.3114C18.8314 24.61 18.4414 25 18.4414 25.48C18.4414 25.96 18.8314 26.35 19.3114 26.35H21.0614V28.1C21.0614 28.58 21.4514 28.97 21.9314 28.97C22.4114 28.97 22.8014 28.58 22.8014 28.1V26.35H24.5514C25.0314 26.35 25.4214 25.96 25.4214 25.48C25.4214 25 25.0314 24.61 24.5514 24.61Z" fill="#44C395" stroke="#44C395" stroke-width="0.25" stroke-miterlimit="10"/>
</svg>
