<svg width="34" height="33" viewBox="0 0 34 33" fill="none" xmlns="http://www.w3.org/2000/svg">
<path fill-rule="evenodd" clip-rule="evenodd" d="M32.92 0H0.5C0.22 0 0 0.22 0 0.5C0 0.78 0.22 1 0.5 1H5.15C4.83 1.49 4.62 2.11 4.62 2.8V20.85C4.62 21.79 4.98 22.66 5.59 23.18L15.49 31.57C15.86 31.88 16.28 32.03 16.71 32.03C17.14 32.03 17.57 31.88 17.93 31.57L27.83 23.18C28.44 22.66 28.8 21.79 28.8 20.85V2.8C28.8 2.11 28.6 1.49 28.27 1H32.92C33.2 1 33.42 0.78 33.42 0.5C33.42 0.22 33.2 0 32.92 0ZM27.8 2.8V20.85C27.8 21.49 27.56 22.09 27.18 22.42L17.28 30.81C16.91 31.12 16.5 31.12 16.13 30.81L6.23 22.42C5.85 22.1 5.61 21.5 5.61 20.85V2.8C5.61 1.83 6.16 1 6.8 1H26.59C27.24 1 27.78 1.82 27.78 2.8H27.8Z" fill="#666666"/>
<path fill-rule="evenodd" clip-rule="evenodd" d="M10.2614 16.4001L16.1414 22.2801C16.4614 22.5901 16.9714 22.5901 17.2814 22.2801L23.1414 16.4201C24.9714 14.5901 24.9714 11.6301 23.1414 9.80006C21.3814 8.04006 18.5514 7.98006 16.7114 9.62006C14.8714 7.98006 12.0514 8.04006 10.2814 9.80006C8.46143 11.6201 8.45143 14.5701 10.2614 16.4001ZM14.1414 14.1901C14.4414 13.9001 14.9314 13.9101 15.2214 14.2201L16.1914 15.2401L19.3414 12.0901C19.6414 11.7901 20.1214 11.7901 20.4214 12.0901C20.7214 12.3901 20.7214 12.8701 20.4214 13.1701L16.7214 16.8701C16.5814 17.0101 16.3814 17.0901 16.1814 17.0901C15.9714 17.0901 15.7814 17.0001 15.6414 16.8501L14.1314 15.2601C13.8414 14.9501 13.8514 14.4701 14.1614 14.1801L14.1414 14.1901Z" fill="#44C395"/>
</svg>
