<svg width="23" height="33" viewBox="0 0 23 33" fill="none" xmlns="http://www.w3.org/2000/svg">
<path fill-rule="evenodd" clip-rule="evenodd" d="M13.8483 15.16H12.0983V13.41C12.0983 12.93 11.7083 12.54 11.2283 12.54C10.7483 12.54 10.3583 12.93 10.3583 13.41V15.16H8.60828C8.12828 15.16 7.73828 15.55 7.73828 16.03C7.73828 16.51 8.12828 16.9 8.60828 16.9H10.3583V18.65C10.3583 19.13 10.7483 19.52 11.2283 19.52C11.7083 19.52 12.0983 19.13 12.0983 18.65V16.9H13.8483C14.3283 16.9 14.7183 16.51 14.7183 16.03C14.7183 15.55 14.3283 15.16 13.8483 15.16Z" fill="#44C395" stroke="#44C395" stroke-width="0.25" stroke-miterlimit="10"/>
<path d="M11.2305 23.14L10.9505 22.95C9.09047 21.71 7.71047 20.71 6.81047 19.2C5.89047 17.66 5.50047 15.6 5.48047 12.32V11.97L5.81047 11.85C7.72047 11.17 9.44047 10.26 10.9405 9.14004L11.2405 8.92004L11.5405 9.14004C13.0405 10.26 14.7605 11.17 16.6605 11.85L16.9905 11.97V12.32C16.9705 15.6 16.5705 17.66 15.6605 19.2C14.7605 20.71 13.3805 21.71 11.5205 22.95L11.2405 23.14H11.2305ZM6.48047 12.66C6.52047 15.55 6.88047 17.36 7.67047 18.69C8.42047 19.95 9.62047 20.85 11.2305 21.94C12.8405 20.86 14.0405 19.95 14.7905 18.69C15.5805 17.37 15.9405 15.55 15.9805 12.66C14.2505 12.01 12.6505 11.17 11.2405 10.15C9.83047 11.16 8.23047 12 6.49047 12.66H6.48047Z" fill="#666666"/>
<path d="M21.29 1.85H15.39V1.01C15.39 0.45 14.94 0 14.38 0H8.08C7.52 0 7.07 0.45 7.07 1.01V1.85H1.17C0.52 1.85 0 2.37 0 3.02V30.91C0 31.56 0.52 32.08 1.17 32.08H21.29C21.94 32.08 22.46 31.56 22.46 30.91V3.02C22.46 2.37 21.94 1.85 21.29 1.85ZM8.08 1.01H14.39V3.71H8.08V1.01ZM21.46 30.91C21.46 31 21.38 31.08 21.29 31.08H1.17C1.08 31.08 1 31 1 30.91V3.02C1 2.93 1.08 2.85 1.17 2.85H7.08V3.69C7.08 4.25 7.53 4.7 8.09 4.7H14.39C14.95 4.7 15.4 4.25 15.4 3.69V2.85H21.3C21.39 2.85 21.47 2.93 21.47 3.02V30.91H21.46Z" fill="#666666"/>
</svg>
