<svg width="17" height="17" viewBox="0 0 17 17" fill="none" xmlns="http://www.w3.org/2000/svg">
<path d="M14.2856 0.0185084H11.9787C11.9787 0.0185084 11.9324 0 11.9046 0H5.09537C5.09537 0 5.03978 0.00925422 5.02125 0.0185084H2.71444C1.21362 0.0185084 0 1.23081 0 2.72074V14.2885C0 15.7784 1.21362 17 2.71444 17H14.2948C15.7864 17 17 15.7877 17 14.2885V2.72074C17 1.23081 15.7864 0.0185084 14.2856 0.0185084ZM15.7493 14.2885C15.7493 15.0936 15.0916 15.7507 14.2856 15.7507H2.71444C1.90845 15.7507 1.25068 15.0936 1.25068 14.2885V2.72074C1.25068 1.91562 1.90845 1.25857 2.71444 1.25857H4.75259V1.96189C4.75259 2.14698 4.91008 2.3043 5.09537 2.3043H11.9046C12.0899 2.3043 12.2474 2.14698 12.2474 1.96189V1.25857H14.2948C15.1008 1.25857 15.7586 1.91562 15.7586 2.72074V14.2885H15.7493Z" fill="#666666"/>
<path d="M13.082 8.90259C13.082 8.76378 13.0264 8.63422 12.9338 8.53243C12.7392 8.33809 12.3872 8.32883 12.1926 8.53243L10.6733 10.0501L9.46892 8.84707C10.0804 8.67124 10.5992 8.2548 10.9142 7.68104C11.3125 6.9407 11.294 6.02453 10.8678 5.29345C10.4324 4.57162 9.64495 4.11816 8.80189 4.11816H5.95775C5.81879 4.11816 5.67982 4.17369 5.58718 4.26623C5.48527 4.35877 5.42969 4.49759 5.42969 4.6364V11.7251C5.42969 12.012 5.66129 12.2526 5.95775 12.2526C6.25421 12.2526 6.48582 12.0213 6.48582 11.7251V8.93961H8.10707L9.95067 10.7812L8.43132 12.2989C8.32942 12.4007 8.27383 12.5302 8.27383 12.6691C8.27383 12.8079 8.32942 12.9467 8.43132 13.0392C8.53323 13.1318 8.66293 13.1966 8.80189 13.1966C8.94086 13.1966 9.07056 13.141 9.17247 13.0392L10.6918 11.5215L12.2204 13.0485C12.4242 13.2428 12.7578 13.2428 12.9523 13.0485C13.1561 12.8449 13.1561 12.521 12.9523 12.3081L11.433 10.7905L12.9523 9.27276C13.0542 9.17097 13.1098 9.04141 13.1098 8.90259H13.082ZM6.45803 5.17315H8.7741C9.26511 5.17315 9.71906 5.43226 9.95993 5.85796C10.2008 6.28365 10.2008 6.80189 9.95993 7.22758C9.71906 7.65328 9.26511 7.91239 8.7741 7.91239H6.45803V5.17315Z" fill="#666666"/>
</svg>
