<svg width="24" height="33" viewBox="0 0 24 33" fill="none" xmlns="http://www.w3.org/2000/svg">
<path fill-rule="evenodd" clip-rule="evenodd" d="M16.1495 6.0928H16.3195C16.9395 6.0928 17.4095 6.6928 17.4095 7.3928V9.2828C17.4095 9.4128 17.4795 9.5428 17.5995 9.6028C17.7195 9.6628 17.8595 9.6628 17.9695 9.5828C18.1295 9.4828 18.3095 9.4228 18.4995 9.4228C19.1195 9.4228 19.5895 10.0228 19.5895 10.7228C19.5895 11.4228 19.1095 12.0228 18.4995 12.0228H17.7695C17.6695 12.0228 17.5795 12.0628 17.5095 12.1328C17.4395 12.2028 17.3995 12.2928 17.3995 12.3928C17.3995 13.6328 16.9695 14.8128 16.2095 15.6928C15.4595 16.5528 14.4495 17.0328 13.3895 17.0328H11.1995C10.1395 17.0328 9.12953 16.5428 8.37953 15.6928C7.60953 14.8228 7.18953 13.6328 7.18953 12.3928C7.18953 12.2928 7.14953 12.2028 7.07953 12.1328C7.00953 12.0628 6.91953 12.0228 6.81953 12.0228H6.08953C5.46953 12.0228 4.99953 11.4228 4.99953 10.7228C4.99953 10.0228 5.47953 9.4228 6.08953 9.4228C6.27953 9.4228 6.45953 9.4828 6.61953 9.5828C6.72953 9.6528 6.87953 9.6628 6.98953 9.6028C7.10953 9.5428 7.17953 9.4128 7.17953 9.2828V7.3928C7.17953 6.6828 7.65953 6.0928 8.26953 6.0928H8.91953C9.11953 6.0928 9.27953 5.9328 9.27953 5.7328C9.27953 5.5328 9.11953 5.3728 8.91953 5.3728H8.26953C7.27953 5.3728 6.44953 6.2728 6.44953 7.4028V8.7428C6.32953 8.7128 6.20953 8.7028 6.08953 8.7028C5.09953 8.7028 4.26953 9.6028 4.26953 10.7328C4.26953 11.8628 5.09953 12.7628 6.08953 12.7628H6.46953C6.54953 14.0428 7.02953 15.2628 7.82953 16.1728C8.71953 17.1928 9.93953 17.7628 11.1995 17.7628H13.3895C14.6495 17.7628 15.8695 17.1928 16.7595 16.1728C17.5595 15.2528 18.0395 14.0428 18.1195 12.7628H18.4995C19.4895 12.7628 20.3195 11.8628 20.3195 10.7328C20.3195 9.6028 19.4895 8.7028 18.4995 8.7028C18.3795 8.7028 18.2495 8.7128 18.1395 8.7428V7.4028C18.1395 6.2628 17.3095 5.3728 16.3195 5.3728H16.1495C15.9495 5.3728 15.7895 5.5328 15.7895 5.7328C15.7895 5.9328 15.9495 6.0928 16.1495 6.0928Z" fill="#666666" stroke="#666666" stroke-width="0.25" stroke-miterlimit="10"/>
<path fill-rule="evenodd" clip-rule="evenodd" d="M8.67188 16.7328V18.1328C8.67188 18.3328 8.83187 18.4928 9.03187 18.4928C9.23187 18.4928 9.39188 18.3328 9.39188 18.1328V16.7328C9.39188 16.5328 9.23187 16.3728 9.03187 16.3728C8.83187 16.3728 8.67188 16.5328 8.67188 16.7328Z" fill="#666666" stroke="#666666" stroke-width="0.25" stroke-miterlimit="10"/>
<path fill-rule="evenodd" clip-rule="evenodd" d="M15.9583 18.1328V16.7328C15.9583 16.5328 15.7983 16.3728 15.5983 16.3728C15.3983 16.3728 15.2383 16.5328 15.2383 16.7328V18.1328C15.2383 18.3328 15.3983 18.4928 15.5983 18.4928C15.7983 18.4928 15.9583 18.3328 15.9583 18.1328Z" fill="#666666" stroke="#666666" stroke-width="0.25" stroke-miterlimit="10"/>
<path fill-rule="evenodd" clip-rule="evenodd" d="M6.75 20.7528C6.75 20.7528 4.84 21.3728 3.27 21.8728C1.92 22.3128 1 23.5728 1 24.9928V31.9928C1 32.1928 1.16 32.3528 1.36 32.3528H23.25C23.45 32.3528 23.61 32.1928 23.61 31.9928V24.9928C23.61 23.5728 22.69 22.3028 21.34 21.8728L17.86 20.7528C17.67 20.6928 17.46 20.7928 17.4 20.9928C17.34 21.1828 17.44 21.3928 17.64 21.4528L21.12 22.5728C22.17 22.9128 22.89 23.8928 22.89 25.0028V31.6328H1.73V25.0028C1.73 23.8928 2.44 22.9128 3.5 22.5728C5.07 22.0628 6.98 21.4528 6.98 21.4528C7.17 21.3928 7.28 21.1828 7.22 20.9928C7.16 20.8028 6.95 20.6928 6.76 20.7528H6.75Z" fill="#666666" stroke="#666666" stroke-width="0.25" stroke-miterlimit="10"/>
<path fill-rule="evenodd" clip-rule="evenodd" d="M14.5 10.1128V10.8428C14.5 11.0428 14.66 11.2028 14.86 11.2028C15.06 11.2028 15.22 11.0428 15.22 10.8428V10.1128C15.22 9.91281 15.06 9.75281 14.86 9.75281C14.66 9.75281 14.5 9.91281 14.5 10.1128Z" fill="#666666"/>
<path fill-rule="evenodd" clip-rule="evenodd" d="M9.39844 10.1128V10.8428C9.39844 11.0428 9.55844 11.2028 9.75844 11.2028C9.95844 11.2028 10.1184 11.0428 10.1184 10.8428V10.1128C10.1184 9.91281 9.95844 9.75281 9.75844 9.75281C9.55844 9.75281 9.39844 9.91281 9.39844 10.1128Z" fill="#666666"/>
<path fill-rule="evenodd" clip-rule="evenodd" d="M9.03187 9.38284H10.4919C10.6919 9.38284 10.8519 9.22284 10.8519 9.02284C10.8519 8.82284 10.6919 8.66284 10.4919 8.66284H9.03187C8.83187 8.66284 8.67188 8.82284 8.67188 9.02284C8.67188 9.22284 8.83187 9.38284 9.03187 9.38284Z" fill="#666666"/>
<path fill-rule="evenodd" clip-rule="evenodd" d="M14.1413 9.38284H15.6013C15.8013 9.38284 15.9613 9.22284 15.9613 9.02284C15.9613 8.82284 15.8013 8.66284 15.6013 8.66284H14.1413C13.9413 8.66284 13.7812 8.82284 13.7812 9.02284C13.7812 9.22284 13.9413 9.38284 14.1413 9.38284Z" fill="#666666"/>
<path fill-rule="evenodd" clip-rule="evenodd" d="M13.4492 13.2329C13.2892 13.5629 12.8292 13.7629 12.3192 13.7629C11.8092 13.7629 11.3492 13.5629 11.1892 13.2329C11.0992 13.0529 10.8792 12.9829 10.6992 13.0729C10.5192 13.1629 10.4492 13.3829 10.5392 13.5629C10.7992 14.0829 11.4892 14.4929 12.3292 14.4929C13.1692 14.4929 13.8492 14.0829 14.1192 13.5629C14.2092 13.3829 14.1392 13.1629 13.9592 13.0729C13.7792 12.9829 13.5592 13.0529 13.4692 13.2329H13.4492Z" fill="#666666"/>
<path fill-rule="evenodd" clip-rule="evenodd" d="M5.74953 9.29283V4.89283C5.74953 4.65283 5.81953 4.41283 5.94953 4.20283C6.05953 4.03283 5.99953 3.80283 5.82953 3.70283C5.65953 3.59283 5.42953 3.65283 5.32953 3.82283C5.12953 4.15283 5.01953 4.51283 5.01953 4.89283V9.29283C5.01953 9.49283 5.17953 9.65283 5.37953 9.65283C5.57953 9.65283 5.73953 9.49283 5.73953 9.29283H5.74953Z" fill="#666666" stroke="#666666" stroke-width="0.25" stroke-miterlimit="10"/>
<path fill-rule="evenodd" clip-rule="evenodd" d="M17.9887 3.58283C18.1287 3.65283 18.2487 3.73283 18.3687 3.83283C18.6987 4.11283 18.8787 4.49283 18.8787 4.88283V9.28283C18.8787 9.48283 19.0387 9.64283 19.2387 9.64283C19.4387 9.64283 19.5987 9.48283 19.5987 9.28283V4.88283C19.5987 4.28283 19.3287 3.70283 18.8287 3.27283C18.6687 3.13283 18.4887 3.02283 18.2987 2.92283C18.1187 2.83283 17.8987 2.90283 17.8087 3.08283C17.7187 3.26283 17.7887 3.48283 17.9687 3.57283L17.9887 3.58283Z" fill="#666666" stroke="#666666" stroke-width="0.25" stroke-miterlimit="10"/>
<path fill-rule="evenodd" clip-rule="evenodd" d="M18.4696 3.01281C18.4696 3.01281 17.3296 0.912812 14.1996 1.00281C12.4396 1.05281 9.82958 1.84281 7.78958 2.47281C6.49958 2.87281 5.44958 3.20281 5.02958 3.19281C4.86958 3.19281 4.72958 3.28281 4.67958 3.43281C4.62958 3.58281 4.67958 3.74281 4.78958 3.84281C4.78958 3.84281 7.07958 5.71281 10.1596 6.49281C12.2396 7.02281 14.6796 7.04281 17.0296 5.70281C17.1996 5.60281 17.2696 5.38281 17.1596 5.20281C17.0596 5.02281 16.8396 4.96281 16.6596 5.06281C14.4996 6.30281 12.2496 6.26281 10.3396 5.78281C8.39958 5.29281 6.78958 4.34281 5.92958 3.76281C6.47958 3.62281 7.19958 3.41281 8.00958 3.16281C9.99958 2.55281 12.5196 1.77281 14.2296 1.72281C16.8596 1.65281 17.8396 3.36281 17.8396 3.36281C17.9396 3.54281 18.1596 3.60281 18.3396 3.50281C18.5196 3.40281 18.5796 3.18281 18.4796 3.00281L18.4696 3.01281Z" fill="#666666" stroke="#666666" stroke-width="0.25" stroke-miterlimit="10"/>
<path fill-rule="evenodd" clip-rule="evenodd" d="M12.6717 32.0828L15.8117 18.8028L17.4217 20.1828C17.5617 20.3028 17.5917 20.5128 17.4917 20.6628L16.3917 22.3128C16.2917 22.4528 16.3117 22.6528 16.4417 22.7728L17.5417 23.8728C17.6517 23.9828 17.6817 24.1428 17.6117 24.2828L14.1717 31.8528C14.0917 32.0328 14.1717 32.2528 14.3517 32.3328C14.5317 32.4128 14.7517 32.3328 14.8317 32.1528L18.2717 24.5828C18.4617 24.1628 18.3717 23.6828 18.0517 23.3528L17.1617 22.4628L18.1017 21.0628C18.4117 20.6028 18.3217 19.9828 17.9017 19.6228L15.8417 17.8528C15.7417 17.7728 15.6117 17.7428 15.4917 17.7828C15.3717 17.8228 15.2817 17.9228 15.2517 18.0428L11.9717 31.9028C11.9217 32.1028 12.0517 32.2928 12.2417 32.3428C12.4417 32.3928 12.6317 32.2628 12.6817 32.0728L12.6717 32.0828Z" fill="#666666" stroke="#666666" stroke-width="0.25" stroke-miterlimit="10"/>
<path fill-rule="evenodd" clip-rule="evenodd" d="M12.6683 31.9128L9.38828 18.0528C9.35828 17.9328 9.26828 17.8328 9.14828 17.7928C9.02828 17.7528 8.89828 17.7828 8.79828 17.8628L6.73828 19.6328C6.31828 19.9928 6.23828 20.6128 6.53828 21.0728L7.47828 22.4728L6.58828 23.3628C6.26828 23.6828 6.17827 24.1728 6.36827 24.5928L9.80828 32.1628C9.88828 32.3428 10.1083 32.4228 10.2883 32.3428C10.4683 32.2628 10.5483 32.0428 10.4683 31.8628L7.02828 24.2928C6.96828 24.1528 6.99828 23.9928 7.09828 23.8828L8.19828 22.7828C8.31828 22.6628 8.33828 22.4628 8.24828 22.3228L7.14828 20.6728C7.04828 20.5228 7.07828 20.3128 7.21828 20.1928L8.82827 18.8128L11.9683 32.0928C12.0183 32.2928 12.2083 32.4128 12.4083 32.3628C12.6083 32.3128 12.7283 32.1228 12.6783 31.9228L12.6683 31.9128Z" fill="#666666" stroke="#666666" stroke-width="0.25" stroke-miterlimit="10"/>
<path fill-rule="evenodd" clip-rule="evenodd" d="M14.4283 21.8528C13.8883 22.2628 13.1383 22.5128 12.3183 22.5128C11.4983 22.5128 10.7483 22.2628 10.2083 21.8528C10.0483 21.7328 9.81833 21.7628 9.69833 21.9228C9.57833 22.0828 9.60833 22.3128 9.76833 22.4328C10.4183 22.9328 11.3283 23.2428 12.3283 23.2428C13.3283 23.2428 14.2283 22.9328 14.8883 22.4328C15.0483 22.3128 15.0783 22.0828 14.9583 21.9228C14.8383 21.7628 14.6083 21.7328 14.4483 21.8528H14.4283Z" fill="#666666" stroke="#666666" stroke-width="0.25" stroke-miterlimit="10"/>
<path fill-rule="evenodd" clip-rule="evenodd" d="M7.56875 28.3528C7.56875 28.1528 7.40875 27.9928 7.20875 27.9928H2.82875C2.62875 27.9928 2.46875 28.1528 2.46875 28.3528V30.5428C2.46875 30.7428 2.62875 30.9028 2.82875 30.9028H7.20875C7.40875 30.9028 7.56875 30.7428 7.56875 30.5428V28.3528ZM6.83875 28.7128V30.1728H3.18875V28.7128H6.83875Z" fill="#44C395"/>
<path fill-rule="evenodd" clip-rule="evenodd" d="M19.6094 28.3528V30.5428C19.6094 30.7428 19.7694 30.9028 19.9694 30.9028C20.1694 30.9028 20.3294 30.7428 20.3294 30.5428V28.3528C20.3294 28.1528 20.1694 27.9928 19.9694 27.9928C19.7694 27.9928 19.6094 28.1528 19.6094 28.3528Z" fill="#44C395" stroke="#44C395" stroke-width="0.25" stroke-miterlimit="10"/>
<path fill-rule="evenodd" clip-rule="evenodd" d="M18.8795 29.8128H21.0695C21.2695 29.8128 21.4295 29.6528 21.4295 29.4528C21.4295 29.2528 21.2695 29.0928 21.0695 29.0928H18.8795C18.6795 29.0928 18.5195 29.2528 18.5195 29.4528C18.5195 29.6528 18.6795 29.8128 18.8795 29.8128Z" fill="#44C395" stroke="#44C395" stroke-width="0.25" stroke-miterlimit="10"/>
<path fill-rule="evenodd" clip-rule="evenodd" d="M17.7897 11.2028H18.5197C18.7197 11.2028 18.8797 11.0428 18.8797 10.8428C18.8797 10.6428 18.7197 10.4828 18.5197 10.4828H17.7897C17.5897 10.4828 17.4297 10.6428 17.4297 10.8428C17.4297 11.0428 17.5897 11.2028 17.7897 11.2028Z" fill="#666666"/>
<path fill-rule="evenodd" clip-rule="evenodd" d="M6.11 11.2028H6.84C7.04 11.2028 7.2 11.0428 7.2 10.8428C7.2 10.6428 7.04 10.4828 6.84 10.4828H6.11C5.91 10.4828 5.75 10.6428 5.75 10.8428C5.75 11.0428 5.91 11.2028 6.11 11.2028Z" fill="#666666"/>
</svg>
