<svg width="29" height="31" viewBox="0 0 29 31" fill="none" xmlns="http://www.w3.org/2000/svg">
<path d="M27.004 15.279C28.6953 11.6175 28.2306 6.92274 25.625 3.82312C22.5698 0.188758 17.6786 0.0618731 14.4939 3.45152C11.3245 0.0709363 6.42558 0.188758 3.37044 3.82312C0.223877 7.56623 0.208639 13.6477 3.33235 17.4089L13.5111 29.5174C14.0596 30.1609 14.9434 30.1609 15.4843 29.5174L25.0383 18.1521" stroke="#666666" stroke-miterlimit="10" stroke-linecap="round"/>
<path d="M7.75781 11.6206C9.68647 11.6206 9.68647 17.4137 11.6151 17.4137C13.5438 17.4137 13.5438 11.6206 15.4724 11.6206C17.4011 11.6206 17.4011 17.4137 19.3377 17.4137C21.2743 17.4137 21.2663 11.6206 23.2029 11.6206C25.1395 11.6206 25.1316 17.4137 27.0682 17.4137" stroke="#44C395" stroke-miterlimit="10" stroke-linecap="round"/>
</svg>
